# xmcd CD database file
# Copyright (C) 1993-1998 Ti Kan
#
# Track frame offsets:
#	150
#	18827
#	39670
#	66617
#	103875
#	124075
#	154740
#	176500
#	200865
#	230417
#	250947
#	274020
#	298802
#	317152
#
# Disc length: 4352 seconds
#
# Revision: 1
# Processed by: cddbd v1.4b41PL1 Copyright (c) Steve Scherf et al.
# Submitted via: CDValet v3.31 - Copyright (c) 1997 Greg Leichner
#
DISCID=d510fe0e
DTITLE=Various Artist - Steppin' Chicago Style (Volume 2)
DYEAR=1900
DGENRE=
TTITLE0=Unknown - Young Hearts Run Free
TTITLE1=Unknown - Fantasy Love
TTITLE2=Unknown - Sunshine
TTITLE3=Unknown - Hot Butterfly
TTITLE4=Unknown - Don't Take It Personal
TTITLE5=Unknown - Haunted House
TTITLE6=Unknown - We Go A Long Back
TTITLE7=Unknown - Games
TTITLE8=Unknown - This Must Be Heaven
TTITLE9=Unknown - Make Yours A Happy Home
TTITLE10=Unknown - Baby I'm Back For More
TTITLE11=Unknown - Through Magic Of Your Love
TTITLE12=Unknown - I Think I'll Tell Her
TTITLE13=Unknown - I Love You
EXTD=
EXTT0=
EXTT1=
EXTT2=
EXTT3=
EXTT4=
EXTT5=
EXTT6=
EXTT7=
EXTT8=
EXTT9=
EXTT10=
EXTT11=
EXTT12=
EXTT13=
PLAYORDER=
